# AST/ASF file generated using VICON BodyLanguage
# -----------------------------------------------
:version 1.10
:name VICON
:units
  mass 1.0
  length 0.45
  angle deg
:documentation
   .ast/.asf automatically generated from VICON data using
   VICON BodyBuilder and BodyLanguage model FoxedUp or BRILLIANT.MOD
:root
   order TX TY TZ RX RY RZ
   axis XYZ
   position 0 0 0  
   orientation 0 -0 0 
:bonedata
  begin
     id 1 
     name lhipjoint
     direction 0.515797 -0.759363 0.396637 
     length 2.47888 
     axis 0 -0 0  XYZ
  end
  begin
     id 2 
     name lfemur
     direction 0.34202 -0.939693 0  
     length 6.81885  
     axis 0 -0 20  XYZ
    dof rx ry rz
    limits (-160.0 20.0)
           (-70.0 70.0)
           (-60.0 70.0)
  end
  begin
     id 3 
     name ltibia
     direction 0.342037 -0.939687 0   
     length 7.89258   
     axis 0 -0 20   XYZ
    dof rx
    limits (-10.0 170.0)
  end
  begin
     id 4 
     name lfoot
     direction 0.173497 -0.476678 0.861787   
     length 2.51543   
     axis -90 -1.13533e-015 20   XYZ
    dof rx rz
    limits (-45.0 90.0)
           (-70.0 20.0)
  end
  begin
     id 5 
     name ltoes
     direction 1.53564e-011 -4.21897e-011 1   
     length 1.21388   
     axis -90 -1.13533e-015 20   XYZ
    dof rx
    limits (-90.0 20.0)
  end
  begin
     id 6 
     name rhipjoint
     direction -0.489454 -0.772941 0.403729   
     length 2.43534  
     axis 0 -0 0  XYZ 
  end
  begin
     id 7 
     name rfemur
     direction -0.34202 -0.939693 0   
     length 7.10357   
     axis 0 -0 -20   XYZ
    dof rx ry rz
    limits (-160.0 20.0)
           (-70.0 70.0)
           (-70.0 60.0)
  end
  begin
     id 8 
     name rtibia
     direction -0.34202 -0.939693 0   
     length 9.16127   
     axis 0 -0 -20   XYZ
    dof rx
    limits (-10.0 170.0)
 end
 begin
     id 9 
     name rfoot
     direction -0.270974 -0.748671 0.605033   
     length 1.74894  
     axis -90 1.13533e-015 -20   XYZ
    dof rx rz
    limits (-45.0 90.0)
           (-20.0 70.0)
  end
  begin
     id 10 
     name rtoes
     direction -1.53557e-011 -4.21759e-011 1   
     length 0.787585   
     axis -90 1.13533e-015 -20   XYZ
    dof rx
    limits (-90.0 20.0)
  end
  begin
     id 11 
     name lowerback
     direction -0.0140249 0.999561 0.0260968   
     length 2.16963   
     axis 0 -0 0   XYZ
    dof rx ry rz
    limits (-20.0 45.0)
           (-30.0 30.0)
           (-30.0 30.0)
  end
  begin
     id 12 
     name upperback
     direction 0.00860018 0.999959 -0.002711   
     length 2.1726   
     axis 0 -0 0   XYZ
    dof rx ry rz
    limits (-20.0 45.0)
           (-30.0 30.0)
           (-30.0 30.0)
  end
  begin
     id 13 
     name thorax
     direction 0.015211 0.999782 -0.0143191   
     length 2.17061   
     axis 0 -0 0   XYZ
    dof rx ry rz
    limits (-20.0 45.0)
           (-30.0 30.0)
           (-30.0 30.0)
  end
  begin
     id 14 
     name lowerneck
     direction -0.0140143 0.999447 0.030145   
     length 2.26749   
     axis 0 -0 0   XYZ
    dof rx ry rz
    limits (-20.0 45.0)
           (-30.0 30.0)
           (-30.0 30.0)
  end
  begin
     id 15 
     name upperneck
     direction 0.118062 0.961438 -0.248392   
     length 2.22728   
     axis 0 -0 0   XYZ
    dof rx ry rz
    limits (-20.0 45.0)
           (-30.0 30.0)
           (-30.0 30.0)
  end
  begin
     id 16
     name head
     direction 0.0431885 0.9954 -0.085514  
     length 2.28786  
     axis 0 -0 0   XYZ
    dof rx ry rz
    limits (-20.0 45.0)
           (-30.0 30.0)
           (-30.0 30.0)
  end
  begin
     id 17 
     name lclavicle
     direction 0.912126 0.409548 0.0172323  
     length 4.31571  
     axis 0 -0 0   XYZ
    dof ry rz
    limits (-20.0 10.0)
           (0.0 20.0)
  end
  begin
     id 18 
     name lhumerus
     direction 1 -4.48977e-011 1.93091e-027   
     length 5.13658   
     axis 180 -30 -90   XYZ
    dof rx ry rz
    limits (-60.0 90.0)
           (-90.0 90.0)
           (-90.0 90.0)
  end
  begin
     id 19
     name lradius
     direction 1 -4.48916e-011 6.84018e-027   
     length 3.22473   
     axis 180 -30 -90   XYZ
    dof rx
    limits (-10.0 170.0)
  end
  begin
     id 20
     name lwrist
     direction 1 -4.48987e-011 7.01981e-027   
     length 1.61236   
     axis -4.37994e-015 90 90   XYZ
    dof ry
    limits (-180.0 0.0)
 end
  begin
     id 21 
     name lhand
     direction 1 -4.49037e-011 1.40335e-026   
     length 0.936406   
     axis -8.96029e-015 90 90   XYZ
    dof rx rz
    limits (-90.0 90.0)
           (-45.0 45.0)
  end
  begin
     id 22 
     name lfingers
     direction 1 -4.48886e-011 2.8104e-026   
     length 0.754955   
     axis -1.79203e-014 90 90   XYZ
    dof rx
    limits (0.0 90.0)
  end
  begin
     id 23
     name lthumb
     direction 0.707107 -6.34937e-011 0.707107   
     length 1.08397   
     axis -90 45 -4.48555e-014   XYZ
    dof rx rz
    limits (-45.0 45.0)
           (-45.0 45.0)
  end
  begin
     id 24 
     name rclavicle
     direction -0.947962 0.317997 0.0156638   
     length 4.86918  
     axis 0 -0 0   XYZ 
    dof ry rz
    limits (-10.0 20.0)
           (-20.0 0.0)
  end
  begin
     id 25 
     name rhumerus
     direction -1 -4.48951e-011 2.80534e-018  
     length 5.60911   
     axis 180 30 90   XYZ
    dof rx ry rz
    limits (-90.0 60.0)
           (-90.0 90.0)
           (-90.0 90.0)
  end
  begin
     id 26 
     name rradius
     direction -1 -4.4898e-011 2.11315e-027   
     length 3.38704   
     axis 180 30 90   XYZ
    dof rx
    limits (-10.0 170.0)
  end
  begin
     id 27 
     name rwrist
     direction -1 -4.48933e-011 7.02314e-027   
     length 1.69352   
     axis -4.37994e-015 -90 -90   XYZ
    dof ry
    limits (-180.0 0.0)
  end
  begin
     id 28
     name rhand
     direction -1 -4.48937e-011 1.40458e-026   
     length 0.755878   
     axis -8.96029e-015 -90 -90   XYZ
    dof rx rz
    limits (-90.0 90.0)
           (-45.0 45.0)
  end
  begin
     id 29
     name rfingers
     direction -1 -4.4901e-011 2.80737e-026   
     length 0.609409   
     axis -1.79203e-014 -90 -90   XYZ
    dof rx
    limits (0.0 90.0)
  end
  begin
     id 30
     name rthumb
     direction -0.707107 -6.34968e-011 0.707107   
     length 0.874992   
     axis -90 -45 4.48555e-014   XYZ
    dof rx rz
    limits (-45.0 45.0)
           (-45.0 45.0)
  end
:hierarchy
  begin
    root lhipjoint rhipjoint lowerback
    lhipjoint lfemur
    lfemur ltibia
    ltibia lfoot
    lfoot ltoes
    rhipjoint rfemur
    rfemur rtibia
    rtibia rfoot
    rfoot rtoes
    lowerback upperback
    upperback thorax
    thorax lowerneck lclavicle rclavicle
    lowerneck upperneck
    upperneck head
    lclavicle lhumerus
    lhumerus lradius
    lradius lwrist
    lwrist lhand lthumb
    lhand lfingers
    rclavicle rhumerus
    rhumerus rradius
    rradius rwrist
    rwrist rhand rthumb
    rhand rfingers
  end

#!OML:ASF C:\ViconDB\ViconDB\414\Spring2016\041811\Spring2016.ASF
:FULLY-SPECIFIED
:DEGREES
140
root 6.3569 18.7837 -9.15961 -177.62 -0.973845 -174.677
lowerback 2.84204 2.91274 1.20175
upperback 0.391163 3.90408 1.24211
thorax -1.1953 1.93313 0.451679
lowerneck -16.2915 -6.49886 -12.8905
upperneck 18.3246 -10.5478 17.5676
head 10.2134 -4.3867 6.87089
rclavicle 4.87768e-014 7.15625e-015
rhumerus -49.6756 20.3187 -101.968
rradius 132.233
rwrist 7.0272
rhand -27.8167 -7.33551
rfingers 7.12502
rthumb -1.20887 -37.3118
lclavicle 4.87768e-014 7.15625e-015
lhumerus -81.2229 -18.1701 100.052
lradius 90.3838
lwrist -10.8103
lhand -35.622 9.80201
lfingers 7.12502
lthumb -8.74507 39.6008
rfemur 11.0874 -11.062 23.8146
rtibia 55.5726
rfoot -150.527 -18.4904
rtoes -21.9853
lfemur -33.7941 0.856808 -14.4964
ltibia 35.2343
lfoot -6.47772 -1.37215
ltoes -12.32
141
root 6.32807 18.7206 -9.68408 -178.378 -1.21753 -175.197
lowerback 3.15738 2.62009 0.79013
upperback 0.753543 3.49618 1.01637
thorax -1.01062 1.73093 0.460207
lowerneck -16.5345 -6.36675 -12.6894
upperneck 18.3273 -10.3449 17.457
head 10.2061 -4.27371 6.82392
rclavicle 2.24378e-014 -3.97569e-015
rhumerus -50.704 18.1552 -102.065
rradius 129.897
rwrist 7.44004
rhand -28.549 -7.78715
rfingers 7.12502
rthumb -1.9161 -37.7583
lclavicle 2.24378e-014 -3.97569e-015
lhumerus -78.2999 -17.3028 99.7736
lradius 90.3528
lwrist -11.0029
lhand -35.3109 9.75996
lfingers 7.12502
lthumb -8.44484 39.5711
rfemur 8.45854 -11.8754 22.56
rtibia 62.2067
rfoot -150.304 -19.3809
rtoes -21.7289
lfemur -31.9028 1.28984 -15.6363
ltibia 35.4412
lfoot -5.61425 -1.87751
ltoes -12.2436
142
root 6.3032 18.6246 -10.1923 -179.139 -1.63087 -175.752
lowerback 3.81579 2.33388 0.308274
upperback 0.930174 3.09663 0.812914
thorax -1.21059 1.53031 0.511926
lowerneck -16.4213 -6.28693 -12.7925
upperneck 18.2586 -10.2456 17.5932
head 10.157 -4.23303 6.90916
rclavicle -1.63997e-015 -1.98785e-015
rhumerus -51.9277 15.6615 -101.925
rradius 127.477
rwrist 7.77595
rhand -29.6322 -8.57723
rfingers 7.12502
rthumb -2.96229 -38.5364
lclavicle -1.63997e-015 -1.98785e-015
lhumerus -75.6811 -16.682 99.9095
lradius 90.3389
lwrist -10.9734
lhand -34.9926 9.43605
lfingers 7.12502
lthumb -8.1376 39.2594
rfemur 5.66661 -13.0699 21.0627
rtibia 68.7858
rfoot -150.032 -20.3227
rtoes -21.8189
lfemur -30.0511 1.58697 -16.7919
ltibia 36.0619
lfoot -4.26716 -3.19675
ltoes -7.96577
143
root 6.28306 18.5114 -10.6849 -179.896 -2.21467 -176.332
lowerback 4.69114 2.00658 -0.202672
upperback 1.05485 2.63026 0.585252
thorax -1.58043 1.2954 0.556765
lowerneck -16.2298 -6.23563 -12.8443
upperneck 18.1701 -10.1692 17.6063
head 10.0785 -4.21219 6.93448
rclavicle -1.41634e-015 -1.98785e-015
rhumerus -53.066 12.932 -101.508
rradius 124.891
rwrist 7.98695
rhand -30.8399 -9.03041
rfingers 7.12502
rthumb -4.12858 -38.9701
lclavicle -1.41634e-015 -1.98785e-015
lhumerus -73.0351 -16.109 100.07
lradius 90.248
lwrist -11.1478
lhand -35.0738 9.34613
lfingers 7.12502
lthumb -8.21595 39.1664
rfemur 2.77319 -14.5407 19.4465
rtibia 75.1361
rfoot -149.589 -21.3223
rtoes -22.1551
lfemur -28.3853 2.70285 -18.1257
ltibia 37.0789
lfoot -4.90609 -5.4777
ltoes -3.33023
